<svg id="Camada_1" data-name="Camada 1" xmlns="http://www.w3.org/2000/svg" viewBox="0 0 700 525"><defs><style>.cls-1{fill:#1d1d1b;}.cls-2{fill:#80ba27;}</style></defs><title>suse-logo</title><path class="cls-1" d="M480.82,347.27c0,15.74-12.83,29.88-31.39,29.88H390.85v-22h58.7a8,8,0,0,0,8-7.92c0-5.07-3.19-8.14-9.41-9.11l-36.21-5.25c-18.93-2.94-27.17-17.19-27.17-31,0-15.73,12.82-29.85,31.4-29.85H474.7V294H416a8,8,0,0,0-8,7.94c0,5.05,3.16,8.15,9.4,9.14l36.21,5.22C472.56,319.25,480.82,333.5,480.82,347.27Zm-125.49-75.2v62.47a23.62,23.62,0,1,1-47.25,0V272.06H285.3v61.17a46.39,46.39,0,0,0,92.78,0V272.06H355.32ZM563.87,294c8.7-.27,17.85-6.93,17.85-20v-2H518.23c-18.6,0-31.43,14.12-31.43,29.85h0v45.32c0,15.74,12.83,29.88,31.43,29.88h63.49v-2c0-13-9.16-19.69-17.85-20H518.1a8,8,0,0,1-8-7.92c0-5.07,3.31-9.11,9.39-9.11h19.85c17.45-.1,27.53-10.81,30.7-23H522.34a14.11,14.11,0,0,0-12.21,6.82v-20a8,8,0,0,1,8-7.94h45.77Zm-311.48,22.3-36.19-5.22c-6.23-1-9.42-4.09-9.42-9.14a8,8,0,0,1,8-7.94h58.67V272.09H214.89c-18.6,0-31.42,14.12-31.42,29.85,0,13.76,8.28,28,27.18,31l36.21,5.25c6.23,1,9.41,4,9.41,9.11a8,8,0,0,1-8,7.92H205.39c-8.68.3-17.84,6.95-17.84,20v2h60.64c18.57,0,31.4-14.14,31.4-29.88C279.59,333.5,271.34,319.25,252.39,316.31Z"/><path class="cls-2" d="M311.36,148.41s-0.13,8.35-.14,9.27c-4.15-1.36-34-11-62-12-23.69-.82-56.09-1.94-101.87,26.18l-1.35.86c-21.51,13.43-36.37,30-44.16,49.24-2.44,6.06-5.71,19.72-2.48,32.58a50.94,50.94,0,0,0,7.55,16.32,49,49,0,0,0,35.65,20.26c20.28,1.79,35.65-7.3,41.12-24.36,3.76-11.78,0-29-14.4-37.83-11.71-7.19-24.33-5.54-31.62-.73a21.11,21.11,0,0,0-9.87,17.93,19.7,19.7,0,0,0,19,19.46,22.08,22.08,0,0,0,7.2-1.25,10.28,10.28,0,0,0,2.74-1.21L157,263l0.19-.1-0.06,0a6.45,6.45,0,0,0,2.88-5.34,6.92,6.92,0,0,0-.26-1.78,6.47,6.47,0,0,0-7.43-4.54l-0.42.07-0.6.2-0.89.29a15.85,15.85,0,0,1-3.46.52,6.46,6.46,0,0,1-5.48-6.41v-0.06a7.53,7.53,0,0,1,1.16-3.79c1.39-2.21,5.25-4.38,10.49-3.93,6.85,0.6,11.77,4.12,15.06,10.72a18.46,18.46,0,0,1-2,19.27c-4.28,5.54-11.84,7.88-21.94,6.77a30.11,30.11,0,0,1-23.59-16.09c-4.69-8.88-5-19.45-.67-27.57,10.3-19.43,29.77-19.22,40.4-17.38,15.17,2.61,38.16,16.19,46.76,47.63h21c-2.58-8-4.08-31.21,19.52-31.21,25.89,0,29.16,18.23,36.47,31.21H306.3c-5.84-8.35-9.93-17.67-8.63-25.49,1.91-11.55,11.09-10.52,23.84-9.07,4.15,0.49,8.88,1,13.78,1.13,13.68,0.07,26.08-2.44,35.13-6.39,5.87-2.58,9.6-4.28,12-6.4a7.12,7.12,0,0,0,1.72-3.06l0.3-.82c0.42-1,.88-3.09,1.19-4.2,0.6-2.32-1.46-1.09-1.46-1.09-4,2.38-13.95,6.93-23.25,7.12-11.55.24-34.82-11.61-37.27-12.87l-0.22-.27c-0.59-1.39-4.09-9.66-4.81-11.4,16.75,11,30.64,17.14,41.29,18.08,11.84,1,21.08-5.41,25-8.18,0.39-.27,2-1.32,1.62-2.6-1.55-5.38-6.87-23.41-11.31-28a17.93,17.93,0,0,0-4.43-3.85c-16.92-9.87-57.09-15.84-59-16.12A0.35,0.35,0,0,0,311.36,148.41ZM339,181.65a17.16,17.16,0,0,1,17.75-16.59A17.2,17.2,0,1,1,339,181.65Z"/><path class="cls-2" d="M356.6,170.12a12,12,0,0,0-12.37,11.55A12,12,0,1,0,356.6,170.12Zm2,13.12c-2.94,0-5.32-1.59-5.32-3.55s2.38-3.56,5.32-3.56,5.32,1.59,5.32,3.56S361.5,183.24,358.55,183.24Z"/><path class="cls-1" d="M602,369.73a7.27,7.27,0,1,0-7.29,7.2A7.26,7.26,0,0,0,602,369.73Zm-1.5,0a5.71,5.71,0,0,1-5.79,5.76A5.73,5.73,0,1,1,600.46,369.73Zm-2.68-1.34c0-1.41-1-2.24-2.71-2.24H592V373h1.52v-2.2h1.21l1.49,2.2H598l-1.7-2.45A2.09,2.09,0,0,0,597.79,368.39Zm-1.53.1a1,1,0,0,1-1.18,1h-1.54v-2H595A1,1,0,0,1,596.26,368.49Z"/></svg>